<svg xmlns="http://www.w3.org/2000/svg"><path d="m178.007812 368.003906c17.125-9.449218 32.476563-21.804687 45.367188-36.511718l-12.007812-68.289063c-2.078126-.796875-3.980469-1.992187-5.601563-3.519531-2.480469-2.316406-4.136719-5.378906-4.71875-8.722656l-6.960937-39.359376c-.898438.15625-1.808594.238282-2.71875.242188-7.746094-.035156-14.367188-5.582031-15.761719-13.203125l-2.800781-15.757813-.957032-5.28125-79.199218-13.917968-4.160157 23.582031-4.167969 23.632813-16.640624 94.535156-9.730469 55.199218-4.183594 23.609376 31.929687 5.601562c32.164063 1.070312 64.035157-6.46875 92.3125-21.839844zm0 0" fill="#ebbf00"/><path d="m178.007812 368.003906c-28.273437 15.378906-60.144531 22.925782-92.3125 21.863282l141.429688 24.933593 5.441406-31.039062-9.191406-52.269531c-12.890625 14.707031-28.242188 27.0625-45.367188 36.511718zm0 0" fill="#d3ac00"/><path d="m338.007812 344.003906c26.6875-41.773437 41.128907-90.195312 41.6875-139.761718l-.167968-.976563-4.160156-23.582031-101.761719 17.917968-16.398438 2.882813 1.199219 6.878906v.160157l.160156.800781c.878906 4.960937-.667968 10.046875-4.160156 13.679687-1.007812 1.144532-2.195312 2.117188-3.519531 2.878906-.585938.367188-1.203125.6875-1.839844.960938-.261719.121094-.527344.226562-.800781.320312-3.960938 1.472657-8.351563 1.269532-12.160156-.5625-2.105469-.953124-3.964844-2.375-5.4375-4.160156-1.234376-1.386718-2.210938-2.984375-2.882813-4.71875-.324219-.910156-.5625-1.847656-.71875-2.800781l5.519531 31.519531c1.5 8.679688-4.289062 16.9375-12.960937 18.480469-2.757813.535156-5.613281.285156-8.238281-.71875l29.519531 167.597656 4.800781-.847656c37.242188-20.800781 68.914062-50.285156 92.320312-85.949219zm0 0" fill="#ffda44"/><path d="m379.695312 204.242188c-.558593 49.566406-15 97.988281-41.6875 139.761718-23.410156 35.664063-55.082031 65.152344-92.328124 85.949219l168.566406-29.71875zm0 0" fill="#e5c43d"/><path d="m240.566406 430.859375.160156-1.015625v-.082031l-2.320312-12.960938-11.28125-2-173.359375-30.558593-15.757813-2.800782-5.519531 31.519532 195.101563 34.480468-2.449219-13.863281zm0 0" fill="#939598"/><path d="m168.648438 159.203125c-.914063-5.082031.730468-10.289063 4.398437-13.921875l-90.558594-15.917969-5.523437 31.519531 15.683594 2.71875 79.199218 14zm0 0" fill="#939598"/><path d="m254.40625 222.003906c3.492188-3.632812 5.039062-8.71875 4.160156-13.679687l-.160156-.800781c.898438 5.179687-.570312 10.492187-4 14.480468zm0 0" fill="#ffcd00"/><path d="m279.367188 123.441406-184.71875-32.558594c-5.5625-1.078124-11.320313.140626-15.964844 3.382813-4.644532 3.242187-7.773438 8.226563-8.675782 13.816406-.550781 4.863281.703126 9.757813 3.519532 13.761719 3.03125 4.332031 7.667968 7.269531 12.878906 8.160156l86.640625 15.277344c2.289063-2.398438 5.292969-3.996094 8.558594-4.558594zm0 0" fill="#ebbf00"/><path d="m92.648438 163.601562v.082032l79.199218 13.917968zm0 0" fill="#ffcd00"/><path d="m257.207031 200.484375 16.398438-2.882813 101.761719-18 15.679687-2.71875-5.519531-31.519531-89.28125 15.757813-44.640625 7.839844zm0 0" fill="#a7a9ac"/><path d="m240.886719 430.800781-.320313.058594v.023437-.023437l-15.425781 2.71875 2.449219 13.863281h.015625-.015625l3.113281 17.648438 204.839844-36.121094-5.558594-31.511719-15.738281 2.777344v.007813zm0 0" fill="#a7a9ac"/><path d="m257.125 200.484375h.082031l-5.601562-31.523437zm0 0" fill="#ffcd00"/><path d="m258.40625 207.363281-1.199219-6.878906h-.082031zm0 0" fill="#ffcd00"/><path d="m448.078125 223.675781c-3.066406-17.40625-19.664063-29.03125-37.070313-25.960937l-31.480468 5.550781 4.160156 23.617187 23.605469-4.167968c8.707031-1.535156 17.003906 4.277344 18.539062 12.984375l16.664063 94.535156c.746094 4.183594-.203125 8.492187-2.636719 11.972656-2.429687 3.484375-6.148437 5.855469-10.332031 6.59375l-23.601563 4.167969 4.160157 23.601562 31.480468-5.550781c17.402344-3.074219 29.023438-19.667969 25.953125-37.074219zm0 0" fill="#808285"/><path d="m383.664062 226.90625h.03125l-.007812-.023438-4.160156-23.617187-.03125.007813zm0 0" fill="#ffcd00"/><path d="m84.328125 210.882812-.007813.023438h.03125l4.167969-23.632812-.03125-.007813v.015625zm0 0" fill="#ffcd00"/><path d="m62.085938 336.960938-23.597657-4.160157c-8.703125-1.535156-14.511719-9.832031-12.976562-18.535156l16.664062-94.542969c1.53125-8.703125 9.832031-14.519531 18.535157-12.984375l23.609374 4.167969 4.160157-23.601562-31.480469-5.550782c-17.40625-3.070312-34.007812 8.554688-37.074219 25.960938l-19.4375 110.253906c-3.070312 17.40625 8.546875 34.003906 25.949219 37.074219l31.480469 5.550781zm0 0" fill="#808285"/><path d="m378.007812 16.003906c0 8.835938-7.164062 16-16 16-8.835937 0-16-7.164062-16-16 0-8.839844 7.164063-15.99999975 16-15.99999975 8.835938 0 16 7.16015575 16 15.99999975zm0 0" fill="#e6e7e8"/><path d="m314.007812 64.003906c0 13.253906-10.746093 24-24 24-13.257812 0-24-10.746094-24-24 0-13.257812 10.742188-24 24-24 13.253907 0 24 10.742188 24 24zm0 0" fill="#ffd422"/><path d="m162.007812 24.003906c0 13.253906-10.746093 24-24 24-13.257812 0-24-10.746094-24-24 0-13.257812 10.742188-23.99999975 24-23.99999975 13.253907 0 24 10.74218775 24 23.99999975zm0 0" fill="#ffe477"/><path d="m226.007812 64.003906c0 8.835938-7.164062 16-16 16-8.835937 0-16-7.164062-16-16 0-8.839844 7.164063-16 16-16 8.835938 0 16 7.160156 16 16zm0 0" fill="#e6e7e8"/><path d="m292.832031 218.554688c-4.355469.769531-7.257812 4.917968-6.488281 9.273437l27.78125 157.597656c.691406 3.8125 4.007812 6.582031 7.882812 6.578125.46875 0 .9375-.042968 1.398438-.128906 4.347656-.769531 7.253906-4.914062 6.488281-9.265625l-27.785156-157.597656c-.78125-4.34375-4.933594-7.234375-9.277344-6.457031zm0 0" fill="#f1f2f2"/><path d="m335.007812 227.371094c-4.351562.761718-7.261718 4.910156-6.496093 9.261718l22.230469 126.058594c.675781 3.820313 3.992187 6.605469 7.871093 6.605469.46875.003906.933594-.039063 1.394531-.125 4.351563-.765625 7.257813-4.914063 6.496094-9.265625l-22.234375-126.054688c-.769531-4.347656-4.917969-7.246093-9.261719-6.480468zm0 0" fill="#f1f2f2"/><path d="m257.605469 249.148438c-4.347657.765624-7.253907 4.914062-6.488281 9.261718l20.800781 118.167969c.675781 3.820313 3.992187 6.605469 7.871093 6.609375.46875.003906.933594-.039062 1.394532-.121094 4.347656-.769531 7.253906-4.914062 6.488281-9.265625l-20.800781-118.175781c-.359375-2.089844-1.539063-3.953125-3.28125-5.171875-1.738282-1.21875-3.894532-1.6875-5.984375-1.304687zm0 0" fill="#f1f2f2"/><g fill="#e6e7e8"><path d="m133.007812 211.371094c-2.089843-.382813-4.246093.089844-5.984374 1.304687-1.742188 1.21875-2.921876 3.082031-3.28125 5.175781l-22.230469 126.054688c-.765625 4.351562 2.144531 8.5 6.496093 9.265625.457032.085937.921876.128906 1.390626.125 3.878906 0 7.195312-2.785156 7.871093-6.605469l22.234375-126.058594c.761719-4.351562-2.144531-8.5-6.496094-9.261718zm0 0"/><path d="m146.007812 376.003906c-.472656 0-.941406-.042968-1.402343-.128906-4.347657-.769531-7.253907-4.914062-6.488281-9.265625l27.785156-157.597656c.769531-4.351563 4.921875-7.257813 9.273437-6.488281 4.351563.769531 7.253907 4.917968 6.488281 9.269531l-27.785156 157.601562c-.675781 3.820313-3.992187 6.605469-7.871094 6.609375zm0 0"/><path d="m188.175781 367.203125c-.46875.003906-.9375-.039063-1.402343-.121094-4.347657-.765625-7.25-4.914062-6.488282-9.261719l17.601563-99.53125c.769531-4.351562 4.917969-7.253906 9.273437-6.488281 4.351563.769531 7.253906 4.921875 6.488282 9.273438l-17.601563 99.519531c-.675781 3.820312-3.992187 6.605469-7.871094 6.609375zm0 0"/></g><path d="m168.648438 159.203125 3.199218 18.398437.957032 5.28125 2.800781 15.757813c1.394531 7.621094 8.015625 13.167969 15.761719 13.203125.910156-.003906 1.820312-.085938 2.71875-.242188l6.960937 39.359376c.582031 3.34375 2.238281 6.40625 4.71875 8.722656 1.621094 1.527344 3.523437 2.722656 5.601563 3.519531 2.625 1.003906 5.480468 1.253906 8.238281.71875 8.671875-1.542969 14.460937-9.800781 12.960937-18.480469l-5.519531-31.519531c.15625.953125.394531 1.890625.71875 2.800781.671875 1.734375 1.648437 3.332032 2.882813 4.71875 1.472656 1.785156 3.332031 3.207032 5.4375 4.160156 3.808593 1.832032 8.199218 2.035157 12.160156.5625.273437-.09375.539062-.199218.800781-.320312.636719-.273438 1.253906-.59375 1.839844-.960938 1.324219-.761718 2.511719-1.734374 3.519531-2.878906 3.429688-3.988281 4.898438-9.300781 4-14.480468v-.160157l-1.28125-6.878906-5.519531-31.523437 44.640625-7.839844v-.078125l85.359375-15.039063c5.210937-.890625 9.851562-3.828125 12.882812-8.160156 2.816407-4.003906 4.066407-8.898438 3.519531-13.761719-.90625-5.589843-4.035156-10.574219-8.679687-13.816406s-10.402344-4.460937-15.960937-3.382813l-94 16.558594-97.761719 17.28125c-3.265625.5625-6.269531 2.160156-8.558594 4.558594-3.667969 3.632812-5.3125 8.839844-4.398437 13.921875zm0 0" fill="#ffcd00"/></svg>